<?xml version="1.0" standalone="no"?>
<!DOCTYPE svg PUBLIC "-//W3C//DTD SVG 20010904//EN"
 "http://www.w3.org/TR/2001/REC-SVG-20010904/DTD/svg10.dtd">
<svg version="1.0" xmlns="http://www.w3.org/2000/svg"
 width="512.000000pt" height="512.000000pt" viewBox="0 0 512.000000 512.000000"
 preserveAspectRatio="xMidYMid meet">
<metadata>
Created by potrace 1.11, written by Peter Selinger 2001-2013
</metadata>
<g transform="translate(0.000000,512.000000) scale(0.100000,-0.100000)"
fill="#000000" stroke="none">
<path d="M1635 5109 c-187 -24 -334 -156 -382 -342 -14 -55 -15 -225 -15
-1587 0 -839 3 -1541 6 -1560 26 -143 108 -260 228 -328 109 -60 13 -57 1708
-57 1298 0 1563 2 1605 14 111 31 216 113 274 214 64 111 61 28 61 1717 0
1680 3 1594 -58 1700 -34 59 -67 97 -117 136 -63 50 -113 72 -205 91 -36 8
-3045 9 -3105 2z m818 -1722 c18 -8 45 -25 59 -38 14 -13 133 -175 265 -359
308 -432 298 -418 325 -439 27 -22 106 -50 128 -46 8 1 33 6 54 9 28 6 117 60
298 182 142 96 273 181 291 189 42 17 132 13 174 -9 47 -25 75 -61 213 -273
69 -106 160 -245 202 -310 141 -215 160 -250 160 -293 -1 -54 -28 -97 -77
-119 -39 -18 -88 -19 -1350 -17 l-1310 1 -34 24 c-35 25 -61 74 -61 114 0 14
27 114 61 223 33 110 65 215 71 234 5 19 41 139 80 265 38 127 71 237 73 245
25 93 88 287 104 318 26 51 79 92 139 107 52 14 87 11 135 -8z"/>
<path d="M350 3873 c-169 -42 -302 -177 -339 -343 -7 -29 -10 -583 -10 -1595
0 -1496 1 -1552 19 -1606 60 -174 202 -296 370 -316 36 -5 751 -7 1590 -7
l1525 2 59 21 c116 42 201 110 255 205 52 90 61 145 63 349 1 103 -1 189 -4
193 -4 3 -513 6 -1132 6 -1208 1 -1214 1 -1349 52 -145 55 -234 110 -339 212
-95 92 -189 243 -227 364 -42 136 -42 129 -43 1332 l0 1148 -192 -2 c-126 0
-210 -6 -246 -15z"/>
</g>
</svg>
